<svg id="Layer_1" data-name="Layer 1" xmlns="http://www.w3.org/2000/svg" viewBox="0 0 428 395.76"><defs><style>.cls-1{fill:#fff;}</style></defs><path class="cls-1" d="M362.19,227.92a2.63,2.63,0,0,1-.82-.18l.82-.82a186.48,186.48,0,0,0-5.3-40.74q-4.25-1.23-8.49-2.74c-2.74-.91-5.48-2-8.13-3.1a154,154,0,0,1-27.77-15.07c-2.19-1.47-4.29-3-6.39-4.66-.09,0-.18,0-.18-.09A157.92,157.92,0,0,1,283,139.33a157.92,157.92,0,0,1-22.93,21.19c0,.09-.09.09-.18.09-2.1,1.64-4.2,3.19-6.39,4.66a154,154,0,0,1-27.77,15.07c-2.65,1.09-5.39,2.19-8.13,3.1s-5.66,1.92-8.49,2.74a186.48,186.48,0,0,0-5.3,40.74l.82.82a2.63,2.63,0,0,1-.82.18c-.09,1.28-.09,2.65-.09,3.93a195.79,195.79,0,0,0,3.2,35.35,184,184,0,0,0,7,27.49c1.19,3.47,2.37,7,3.84,10.41a180.48,180.48,0,0,0,12.69,26,194.07,194.07,0,0,0,23,31.88A202.33,202.33,0,0,0,283,390.13,202.33,202.33,0,0,0,312.5,363,160.06,160.06,0,0,1,283,337.07a153.57,153.57,0,0,1-23-33.8c-1.46-2.74-2.74-5.57-4-8.49,4.3-1.46,8.5-3.11,12.7-4.84,4.84-1.92,9.68-4,14.34-6.3,4.66,2.28,9.5,4.38,14.34,6.3,4.2,1.73,8.4,3.38,12.7,4.84a256.56,256.56,0,0,0,38.17,10.32c1.47-3.38,2.65-6.94,3.84-10.41a184,184,0,0,0,7-27.49,195.79,195.79,0,0,0,3.2-35.35C362.28,230.57,362.28,229.2,362.19,227.92Zm-39.73,16.62c-.28,4.3-.83,8.41-1.46,12.52a226.66,226.66,0,0,1-37.54-17.54.68.68,0,0,0-.92,0A226.66,226.66,0,0,1,245,257.06c-.63-4.11-1.18-8.22-1.46-12.52s-.55-8.4-.55-12.69.19-8.49.55-12.7c.09-1.37.19-2.64.37-3.92,1.09-.46,2.1-.92,3.2-1.47a183.75,183.75,0,0,0,31.05-17.9,42.27,42.27,0,0,0,4.84-3.47,42.27,42.27,0,0,0,4.84,3.47,183.75,183.75,0,0,0,31.05,17.9c1.1.55,2.11,1,3.2,1.47.18,1.28.28,2.55.37,3.92.36,4.21.55,8.41.55,12.7S322.82,240.34,322.46,244.54Z" transform="translate(-69 -85.62)"/><path class="cls-1" d="M497,105.44A121.42,121.42,0,0,1,468.23,133h-.09a117,117,0,0,1-39.64,17.27c.73,2.28,1.37,4.65,2,7a237.87,237.87,0,0,1,6.76,31.14,256.82,256.82,0,0,1,3.38,39.46c.09,1.28.09,2.65.09,3.93a264.09,264.09,0,0,1-2.47,36.35,263.77,263.77,0,0,1-7.76,38.18c-.19.82-.46,1.64-.73,2.47a266.82,266.82,0,0,1-15.71,41.55A274.25,274.25,0,0,1,391,390a268.61,268.61,0,0,1-29.59,35.53,262.39,262.39,0,0,1-36,30.78A274.1,274.1,0,0,1,283,481.38a274.1,274.1,0,0,1-42.38-25.12,262.39,262.39,0,0,1-36-30.78A268.61,268.61,0,0,1,175,390a274.25,274.25,0,0,1-23.11-39.55,266.82,266.82,0,0,1-15.71-41.55c-.27-.83-.54-1.65-.73-2.47a263.77,263.77,0,0,1-7.76-38.18,264.09,264.09,0,0,1-2.47-36.35c0-1.28,0-2.65.09-3.93a256.82,256.82,0,0,1,3.38-39.46,237.87,237.87,0,0,1,6.76-31.14c.64-2.38,1.28-4.75,2-7A119.15,119.15,0,0,1,97.77,133,121.42,121.42,0,0,1,69,105.44a160,160,0,0,1,34.34-19.82,79.09,79.09,0,0,0,32.15,23A76,76,0,0,0,152,113.11l-.09.09h.46a80.62,80.62,0,0,0,24.29,0h.1c.45-.09.91-.18,1.28-.27a79.13,79.13,0,0,0,23.1-7.67A75.18,75.18,0,0,0,214,97a73.65,73.65,0,0,0,11.78-11.42,153.33,153.33,0,0,1,27.77,15.07c2.19,1.46,4.29,3,6.39,4.66a.31.31,0,0,0,.09.18A122.17,122.17,0,0,1,231.3,133a4.55,4.55,0,0,0-.82.46c-.27.18-.55.37-.91.64a116,116,0,0,1-35,15.44,100.56,100.56,0,0,1-16.44,3c-.09.09-.09.27-.19.46a215.33,215.33,0,0,0-8.49,30.78c-.64,2.83-1.19,5.75-1.64,8.67a232.08,232.08,0,0,0-3.29,39.37,228.8,228.8,0,0,0,3.29,39.09,222.06,222.06,0,0,0,9.95,39,1.7,1.7,0,0,0,.18.73A232.35,232.35,0,0,0,194.5,347.3a238.13,238.13,0,0,0,23.1,33.88,220.36,220.36,0,0,0,29.51,30.33A232.26,232.26,0,0,0,283,437.08a232.26,232.26,0,0,0,35.89-25.57,220.36,220.36,0,0,0,29.51-30.33,238.13,238.13,0,0,0,23.1-33.88A232.35,232.35,0,0,0,388,310.67a1.7,1.7,0,0,0,.18-.73,222.06,222.06,0,0,0,9.95-39,228.8,228.8,0,0,0,3.29-39.09,232.08,232.08,0,0,0-3.29-39.37c-.45-2.92-1-5.84-1.64-8.67A215.33,215.33,0,0,0,388,153c-.1-.19-.1-.37-.19-.46a100.56,100.56,0,0,1-16.44-3,116,116,0,0,1-35-15.44V134a8.08,8.08,0,0,1-.91-.55c-.28-.18-.46-.27-.73-.46h-.09A122.17,122.17,0,0,1,306,105.53a.31.31,0,0,0,.09-.18c2.1-1.65,4.2-3.2,6.39-4.66a153.33,153.33,0,0,1,27.77-15.07A73.65,73.65,0,0,0,352.05,97a75.18,75.18,0,0,0,12.79,8.22,79.13,79.13,0,0,0,23.1,7.67c.37.09.83.18,1.28.27h.1a80.62,80.62,0,0,0,24.29,0h.46l-.09-.09a76,76,0,0,0,16.53-4.47,79.09,79.09,0,0,0,32.15-23A160,160,0,0,1,497,105.44Z" transform="translate(-69 -85.62)"/></svg>